<?xml version="1.0" standalone="no"?>
<!DOCTYPE svg PUBLIC "-//W3C//DTD SVG 20010904//EN"
 "http://www.w3.org/TR/2001/REC-SVG-20010904/DTD/svg10.dtd">
<svg version="1.0" xmlns="http://www.w3.org/2000/svg"
 width="260.000000pt" height="260.000000pt" viewBox="0 0 260.000000 260.000000"
 preserveAspectRatio="xMidYMid meet">
<metadata>
Created by potrace 1.14, written by Peter Selinger 2001-2017
</metadata>
<g transform="translate(0.000000,260.000000) scale(0.100000,-0.100000)"
fill="#000000" stroke="none">
<path d="M780 2531 c-154 -47 -217 -201 -146 -358 16 -35 35 -68 42 -74 11 -9
13 -27 8 -74 -5 -50 -3 -70 15 -109 l21 -48 -113 -117 c-171 -176 -246 -300
-288 -478 -18 -76 -20 -109 -16 -238 4 -124 9 -165 31 -239 53 -177 141 -321
272 -446 130 -124 274 -205 444 -252 74 -20 107 -23 255 -22 155 1 178 3 260
28 183 55 311 131 441 260 184 184 279 399 291 653 7 140 -6 242 -44 348 -51
142 -118 240 -271 396 -91 93 -102 109 -93 127 20 38 31 111 23 150 -8 33 -6
43 15 68 90 112 80 302 -21 379 -71 54 -71 54 -606 54 -272 -1 -506 -4 -520
-8z m129 -186 c72 -57 94 -56 171 7 49 39 86 37 140 -9 30 -26 52 -37 76 -37
22 0 47 12 80 37 30 24 58 37 77 37 20 0 45 -13 75 -37 32 -26 55 -37 78 -37
22 0 47 12 80 37 51 40 86 46 121 22 51 -36 36 -120 -37 -200 -27 -29 -54 -63
-60 -74 -11 -21 -16 -21 -408 -21 l-397 1 -60 69 c-91 106 -108 167 -60 215
34 35 71 32 124 -10z m805 -491 c24 -54 52 -90 148 -191 66 -68 140 -156 165
-194 254 -394 78 -952 -368 -1164 -117 -55 -215 -77 -354 -77 -144 -1 -235 18
-351 72 -113 52 -187 105 -270 193 -256 269 -305 657 -123 964 19 31 91 116
160 189 117 122 157 179 183 257 5 16 33 17 393 17 l389 0 28 -66z"/>
<path d="M1220 1595 c0 -62 -3 -85 -13 -85 -22 0 -87 -61 -109 -103 -29 -55
-31 -155 -3 -212 10 -22 71 -94 135 -160 134 -138 150 -159 150 -198 0 -38
-40 -77 -80 -77 -33 0 -80 38 -80 65 0 12 -14 15 -76 15 l-76 0 7 -37 c14 -75
70 -151 125 -168 18 -6 20 -15 20 -91 l0 -84 75 0 75 0 0 78 0 78 52 34 c68
45 103 110 103 189 -1 86 -32 139 -166 276 -64 66 -121 130 -128 142 -30 59 5
123 68 123 31 0 81 -36 81 -60 0 -6 30 -10 75 -10 l75 0 -6 28 c-20 80 -57
133 -115 162 l-39 20 0 80 0 80 -75 0 -75 0 0 -85z"/>
</g>
</svg>
